# xmcd
#
# Track frame offsets:
#	150
#	32086
#	61199
#	97173
#	140116
#	171948
#	196375
#	209867
#	222347
#	245736
#	262655
#	279759
#	297168
#
# Disc length: 4147
#
# Revision: 1
# Processed by: cddbd v1.5.1PL0 Copyright (c) Steve Scherf et al.
# Submitted via: EasyCDDAExtractor 5.0.5.1
# Normalized: r0:DSETVAR1
#
DISCID=d110310d
DTITLE=Various Artist - DEE JAY MIX CLUB 2003 CZERWIEC PART 5
DYEAR=1900
DGENRE=
TTITLE0=FLIPSIDE - JULIET
TTITLE1=TARA LOWE - BE WITH YOU
TTITLE2=SUNBEAM - WATCHING THE STARS
TTITLE3=SOLANGE - FEELIN YOU (RMX)
TTITLE4=SAFFRON HILL FEAT. BEN ONONO - MY LOVE IS ALWAYS
TTITLE5=JENNIFER LOPEZ - I'M GLAD(RMX)
TTITLE6=TRICKY - ANTI-MATTER
TTITLE7=TRINA FEAT. TWEET - NO PANTIES
TTITLE8=CAMOUFLAGE - ME AND YOU
TTITLE9=FABOLOUS FEAT MIKE SHOREY and LIL'MO - CAN"T LET YOUR GO
TTITLE10=MORCHEEBA FEAT.BIG DADDY KENE - WHAT'S YOUR NAME
TTITLE11=BRAINSTORM - COLDER
TTITLE12=R.KELLY - IGNITION(RMX)
EXTD=
EXTT0=
EXTT1=
EXTT2=
EXTT3=
EXTT4=
EXTT5=
EXTT6=
EXTT7=
EXTT8=
EXTT9=
EXTT10=
EXTT11=
EXTT12=
PLAYORDER=
